<?xml version="1.0" encoding="UTF-8" standalone="no"?>
<!DOCTYPE svg PUBLIC "-//W3C//DTD SVG 1.1//EN" "http://www.w3.org/Graphics/SVG/1.1/DTD/svg11.dtd">
<svg width="100%" height="100%" viewBox="0 0 230 230" version="1.1" xmlns="http://www.w3.org/2000/svg" xmlns:xlink="http://www.w3.org/1999/xlink" xml:space="preserve" xmlns:serif="http://www.serif.com/" style="fill-rule:evenodd;clip-rule:evenodd;stroke-linecap:round;stroke-linejoin:round;stroke-miterlimit:1.5;">
    <g transform="matrix(1,0,0,1,-74.991883,-48)">
        <g transform="matrix(0.749148,0,0,0.749148,47.659938,40.888957)">
            <g transform="matrix(1.236552,0,0,1.236552,-31.168344,-41.544713)">
                <path d="M230.568,44.738C248.858,44.738 266.398,52.004 279.331,64.937C292.264,77.869 299.53,95.41 299.53,113.7L299.53,217.131C299.53,235.421 292.264,252.961 279.331,265.894C266.398,278.827 248.858,286.093 230.568,286.093L127.137,286.093C108.847,286.093 91.306,278.827 78.374,265.894C65.441,252.961 58.175,235.421 58.175,217.131L58.175,113.7C58.175,95.41 65.441,77.869 78.374,64.937C91.306,52.004 108.847,44.738 127.137,44.738L230.568,44.738Z" style="fill:white;"/>
            </g>
            <g transform="matrix(1,0,0,1,-103.799048,-662.967153)">
                <path d="M274.557,875.066L274.557,928.801L236.773,928.801C224.622,928.801 212.969,923.974 204.377,915.382C195.785,906.79 190.958,895.136 190.958,882.985L190.958,723.134L313.025,776.868L313.025,723.134L350.809,723.134C362.96,723.134 374.613,727.961 383.205,736.553C391.797,745.145 396.624,756.798 396.624,768.949L396.624,928.801L274.557,875.066ZM313.025,796.471L295.233,797.896C283.556,798.831 274.557,808.58 274.557,820.294L274.557,855.463L292.349,854.039C304.026,853.104 313.025,843.355 313.025,831.64L313.025,796.471Z" style="stroke:black;stroke-width:1.33px;"/>
            </g>
        </g>
    </g>
</svg>
