<?xml version="1.0" encoding="UTF-8" standalone="no"?>
<!DOCTYPE svg PUBLIC "-//W3C//DTD SVG 1.1//EN" "http://www.w3.org/Graphics/SVG/1.1/DTD/svg11.dtd">
<svg width="100%" height="100%" viewBox="0 0 909 326" version="1.1" xmlns="http://www.w3.org/2000/svg" xmlns:xlink="http://www.w3.org/1999/xlink" xml:space="preserve" xmlns:serif="http://www.serif.com/" style="fill-rule:evenodd;clip-rule:evenodd;stroke-linejoin:round;stroke-miterlimit:2;">
    <g transform="matrix(1,0,0,1,-330.927256,0)">
        <g transform="matrix(1,0,0,1,320.320361,-348.363377)">
            <g transform="matrix(1,0,0,1,70.58815,221.033607)">
                <path d="M659.775,305.814L659.775,346.078C659.775,365.866 643.734,381.907 623.945,381.907L611.185,381.907L611.185,198.752L659.775,198.752L659.775,257.676L729.49,198.752L790.415,198.752L714.246,261.174L794.34,381.907L770.099,381.907C751.708,381.907 734.529,372.732 724.303,357.446L679.142,289.942L659.775,305.814Z" style="fill:white;"/>
            </g>
            <g transform="matrix(1,0,0,1,25.906118,221.033607)">
                <path d="M244.875,247.342L244.875,247.071C244.875,234.256 249.966,221.966 259.028,212.905C268.089,203.843 280.379,198.752 293.194,198.752L379.711,198.752C392.526,198.752 404.816,203.843 413.878,212.905C422.94,221.966 428.03,234.256 428.03,247.071L428.03,333.588C428.03,346.403 422.94,358.693 413.878,367.755C404.816,376.817 392.526,381.907 379.711,381.907L293.194,381.907C280.379,381.907 268.089,376.817 259.028,367.755C249.966,358.693 244.875,346.403 244.875,333.588L244.875,256.155L293.465,256.155L293.465,333.318L379.441,333.318L379.441,247.342L244.875,247.342Z" style="fill:white;"/>
            </g>
            <g transform="matrix(1,0,0,1,231.402204,221.033607)">
                <path d="M244.875,247.342L244.875,247.071C244.875,234.256 249.966,221.966 259.028,212.905C268.089,203.843 280.379,198.752 293.194,198.752L379.711,198.752C392.526,198.752 404.816,203.843 413.878,212.905C422.94,221.966 428.03,234.256 428.03,247.071L428.03,333.588C428.03,346.403 422.94,358.693 413.878,367.755C404.816,376.817 392.526,381.907 379.711,381.907L293.194,381.907C280.379,381.907 268.089,376.817 259.028,367.755C249.966,358.693 244.875,346.403 244.875,333.588L244.875,256.155L293.465,256.155L293.465,333.318L379.441,333.318L379.441,247.342L244.875,247.342Z" style="fill:white;"/>
            </g>
            <g transform="matrix(1,0,0,1,3.565102,221.033607)">
                <path d="M110.31,266.325L110.31,346.078C110.31,365.866 94.268,381.907 74.48,381.907L61.72,381.907L61.72,198.752L110.31,198.752L196.286,314.335L196.286,234.582C196.286,214.794 212.327,198.752 232.115,198.752L244.875,198.752L244.875,381.907L196.286,381.907L110.31,266.325Z" style="fill:white;"/>
            </g>
        </g>
    </g>
</svg>
